Coordinates
version=1
nRows=31
nColumns=38
inDegrees=no

Units are S.I. units (second, meters, Newtons, ...)
If the header above contains a line with 'inDegrees', this indicates whether rotational values are in degrees (yes) or radians (no).

endheader
time	pelvis_tilt	pelvis_list	pelvis_rotation	pelvis_tx	pelvis_ty	pelvis_tz	hip_flexion_r	hip_adduction_r	hip_rotation_r	knee_angle_r	ankle_angle_r	subtalar_angle_r	mtp_angle_r	hip_flexion_l	hip_adduction_l	hip_rotation_l	knee_angle_l	ankle_angle_l	subtalar_angle_l	mtp_angle_l	lumbar_extension	lumbar_bending	lumbar_rotation	arm_flex_r	arm_add_r	arm_rot_r	elbow_flex_r	pro_sup_r	wrist_flex_r	wrist_dev_r	arm_flex_l	arm_add_l	arm_rot_l	elbow_flex_l	pro_sup_l	wrist_flex_l	wrist_dev_l
1.78	-0.728829	1.2856	2.35982	0.733386	0.622043	0.988447	0.368008	-0.336712	-0.0637684	1.06101	0.0287834	0	0	0.631385	0.117467	-0.12892	0.288072	-0.128168	0	0	-0.0774584	-0.229889	0.198434	0.199742	-0.381314	1.07011	0.493149	0.595385	0	0	0.245534	-0.334013	0.852448	0.431526	0.831125	0	0
1.79	-0.741647	1.28951	2.36998	0.731221	0.63223	0.987789	0.352637	-0.340354	-0.066827	1.06068	0.0252042	0	0	0.625102	0.119097	-0.129495	0.302074	-0.134495	0	0	-0.0812133	-0.230082	0.200477	0.19676	-0.382979	1.06691	0.495123	0.600975	0	0	0.241879	-0.33478	0.849161	0.435035	0.834103	0	0
1.8	-0.755732	1.29336	2.38136	0.728964	0.642641	0.987147	0.336507	-0.344442	-0.0711703	1.05975	0.0216913	0	0	0.617878	0.121208	-0.12875	0.316848	-0.138595	0	0	-0.0845265	-0.230517	0.202539	0.193097	-0.384418	1.06233	0.496877	0.605538	0	0	0.237491	-0.335596	0.84489	0.438619	0.837607	0	0
1.81	-0.767093	1.29628	2.39001	0.726624	0.653185	0.986329	0.321661	-0.34873	-0.0761004	1.05867	0.0187748	0	0	0.611506	0.123885	-0.125461	0.329461	-0.140802	0	0	-0.0856958	-0.231105	0.205032	0.18866	-0.385325	1.05755	0.497976	0.6104	0	0	0.23239	-0.336266	0.840188	0.441725	0.84198	0	0
1.82	-0.789383	1.30057	2.40978	0.724253	0.66387	0.985953	0.303104	-0.354623	-0.0821255	1.05655	0.00768487	0	0	0.599442	0.128811	-0.120128	0.332842	-0.160422	0	0	-0.0888424	-0.232797	0.210598	0.182709	-0.387581	1.05415	0.50009	0.608426	0	0	0.237747	-0.341785	0.889754	0.445572	0.789471	0	0
1.83	-0.804317	1.30322	2.42166	0.721813	0.674515	0.985316	0.289998	-0.359237	-0.0834293	1.05745	-0.000530012	0	0	0.593265	0.132809	-0.115727	0.339068	-0.175019	0	0	-0.0902644	-0.234312	0.213104	0.178583	-0.388014	1.05023	0.500588	0.61294	0	0	0.232866	-0.343193	0.888168	0.449277	0.788888	0	0
1.84	-0.817018	1.30539	2.43135	0.719285	0.68514	0.984664	0.279307	-0.363525	-0.0827632	1.06017	-0.00352626	0	0	0.58963	0.136213	-0.110758	0.348052	-0.180801	0	0	-0.089406	-0.235017	0.210114	0.184832	-0.388229	1.08249	0.498045	0.586351	0	0	0.220431	-0.344014	0.864028	0.452789	0.807153	0	0
1.85	-0.828405	1.30695	2.44275	0.71638	0.696135	0.984217	0.267584	-0.369721	-0.0872294	1.06186	-0.0153663	0	0	0.58581	0.140935	-0.104043	0.357556	-0.200141	0	0	-0.0891179	-0.236664	0.209723	0.180585	-0.387274	1.08177	0.496492	0.584707	0	0	0.215154	-0.346188	0.866724	0.456091	0.80193	0	0
1.86	-0.840039	1.30832	2.45415	0.713471	0.707196	0.983911	0.257349	-0.376119	-0.0904854	1.06482	-0.029845	0	0	0.582607	0.144293	-0.101976	0.371419	-0.215806	0	0	-0.0887626	-0.238501	0.209666	0.17596	-0.385974	1.07921	0.494564	0.585717	0	0	0.209764	-0.34809	0.868238	0.459141	0.798046	0	0
1.87	-0.850597	1.30952	2.46392	0.710615	0.718169	0.9837	0.249827	-0.382117	-0.0911249	1.06981	-0.047217	0	0	0.580874	0.145653	-0.106219	0.38946	-0.229348	0	0	-0.0879491	-0.240238	0.210375	0.17124	-0.384699	1.07583	0.492588	0.589089	0	0	0.204517	-0.349636	0.869229	0.46188	0.795251	0	0
1.88	-0.858057	1.30986	2.47083	0.70769	0.729021	0.983594	0.245891	-0.388207	-0.0893055	1.07675	-0.0678789	0	0	0.579981	0.146642	-0.110329	0.407082	-0.24334	0	0	-0.0861218	-0.242114	0.211	0.166251	-0.383041	1.07075	0.490229	0.593363	0	0	0.199461	-0.350829	0.869824	0.464046	0.793121	0	0
1.89	-0.862022	1.30936	2.4745	0.704733	0.739836	0.983691	0.245166	-0.393898	-0.0854544	1.08497	-0.0988382	0	0	0.581832	0.146054	-0.118381	0.429033	-0.259103	0	0	-0.0862413	-0.244994	0.217442	0.147844	-0.380161	1.01377	0.490896	0.646798	0	0	0.200442	-0.350418	0.877472	0.465462	0.790479	0	0
1.9	-0.86892	1.30967	2.48181	0.701745	0.750522	0.98426	0.244665	-0.398895	-0.0798433	1.09488	-0.121794	0	0	0.581712	0.145665	-0.123531	0.450046	-0.26858	0	0	-0.0856956	-0.246607	0.216827	0.143989	-0.37831	1.00954	0.488231	0.654669	0	0	0.195966	-0.350923	0.87526	0.467158	0.791648	0	0
1.91	-0.870875	1.30316	2.48618	0.699883	0.761433	0.98247	0.207171	-0.405963	-0.111087	1.03477	-0.120944	0	0	0.591132	0.146787	-0.132332	0.480443	-0.270495	0	0	-0.0717105	-0.254321	0.218607	0.13436	-0.373746	1.00301	0.48856	0.660364	0	0	0.188719	-0.359987	0.876092	0.477383	0.797699	0	0
1.92	-0.882057	1.30403	2.49653	0.69707	0.77172	0.983738	0.210162	-0.409977	-0.0983102	1.04894	-0.151041	0	0	0.589453	0.146562	-0.137589	0.501165	-0.273059	0	0	-0.0718612	-0.255891	0.219457	0.133803	-0.373161	1.00917	0.48552	0.652814	0	0	0.188829	-0.361115	0.890913	0.47764	0.782475	0	0
1.93	-0.896781	1.3053	2.5096	0.694298	0.781881	0.98535	0.214442	-0.413714	-0.0826777	1.0651	-0.185958	0	0	0.58569	0.146711	-0.145871	0.520905	-0.271454	0	0	-0.0736683	-0.257486	0.220937	0.133352	-0.372958	1.01274	0.483012	0.649473	0	0	0.189106	-0.361276	0.901631	0.477653	0.770733	0	0
1.94	-0.909557	1.30644	2.52263	0.691286	0.792153	0.987149	0.219638	-0.418893	-0.0714192	1.08283	-0.224909	0	0	0.579407	0.14889	-0.153668	0.536144	-0.267788	0	0	-0.0756014	-0.258635	0.220764	0.131857	-0.372086	1.01276	0.479995	0.648006	0	0	0.188785	-0.360978	0.90941	0.477372	0.76116	0	0
1.95	-0.928233	1.3083	2.54008	0.688439	0.802241	0.98927	0.22567	-0.42451	-0.0590515	1.10238	-0.266173	0	0	0.567159	0.151844	-0.164142	0.544519	-0.262614	0	0	-0.0797813	-0.259956	0.221546	0.131269	-0.371725	1.01229	0.477167	0.64844	0	0	0.189248	-0.360053	0.916279	0.476671	0.753437	0	0
1.96	-0.95193	1.3112	2.56102	0.685797	0.812154	0.991639	0.232303	-0.429418	-0.0448084	1.12313	-0.309437	0	0	0.548762	0.154813	-0.176741	0.545352	-0.256112	0	0	-0.0859319	-0.260879	0.223415	0.131626	-0.372283	1.01213	0.475029	0.649951	0	0	0.19058	-0.358635	0.923553	0.475526	0.746791	0	0
1.97	-0.971682	1.31482	2.5797	0.683058	0.82222	0.994016	0.238896	-0.433158	-0.0335211	1.14395	-0.351713	0	0	0.527547	0.157507	-0.188401	0.542084	-0.248124	0	0	-0.0913113	-0.260224	0.223785	0.131391	-0.372617	1.0115	0.472859	0.651551	0	0	0.191248	-0.357302	0.930277	0.474265	0.741795	0	0
1.98	-1.46967	1.21073	2.92238	0.699731	0.819019	0.98978	0.328734	-0.574656	0.217545	1.29404	-0.343331	0	0	0.406146	0.248053	-0.419234	0.478584	-0.259161	0	0	-0.105852	-0.423488	0.414318	0.167805	-0.444273	1.20954	0.573967	0.408933	0	0	0.347556	-0.41276	1.39887	0.5485	0.376414	0	0
1.99	-0.997185	1.32305	2.60361	0.677712	0.841683	0.998445	0.259445	-0.434365	-0.00992054	1.1886	-0.445379	0	0	0.486608	0.160752	-0.207055	0.531099	-0.230381	0	0	-0.100443	-0.255625	0.225115	0.127642	-0.37359	0.993184	0.471362	0.677418	0	0	0.190578	-0.352873	0.926465	0.473505	0.747281	0	0
2	-0.999722	1.32684	2.60584	0.675194	0.850973	1.00037	0.274337	-0.430939	0.00473639	1.21262	-0.476727	0	0	0.470658	0.160133	-0.213464	0.528163	-0.22407	0	0	-0.102168	-0.252202	0.223876	0.128298	-0.374071	0.991064	0.470679	0.682568	0	0	0.188211	-0.351287	0.918907	0.474283	0.754433	0	0
2.01	-0.999067	1.33084	2.60412	0.673038	0.860001	1.00224	0.291484	-0.424729	0.0214125	1.23682	-0.502345	0	0	0.456617	0.15725	-0.219096	0.526656	-0.219537	0	0	-0.103598	-0.248426	0.223142	0.129332	-0.374355	0.987066	0.470426	0.689409	0	0	0.185355	-0.349808	0.906926	0.475643	0.766202	0	0
2.02	-1.02936	1.34686	2.63494	0.670241	0.869228	1.00744	0.34016	-0.40647	0.0718458	1.3221	-0.568273	0	0	0.424682	0.150241	-0.218412	0.514867	-0.221263	0	0	-0.123906	-0.236403	0.21846	0.136896	-0.377856	0.992115	0.467994	0.684587	0	0	0.190517	-0.342807	0.914022	0.468481	0.753092	0	0
2.03	-1.02007	1.35019	2.62484	0.668368	0.877822	1.00894	0.359866	-0.395143	0.090489	1.34266	-0.593479	0	0	0.414802	0.146596	-0.220136	0.51381	-0.218779	0	0	-0.121948	-0.232513	0.218647	0.138601	-0.378688	0.994204	0.468003	0.683306	0	0	0.191138	-0.343351	0.919676	0.469315	0.747048	0	0
2.04	-1.00934	1.35266	2.61336	0.666479	0.886274	1.01034	0.379588	-0.382294	0.110847	1.3615	-0.605774	0	0	0.405314	0.144094	-0.221257	0.512249	-0.215393	0	0	-0.119692	-0.229299	0.218379	0.14039	-0.379263	0.995196	0.46794	0.683442	0	0	0.191518	-0.343878	0.923877	0.470117	0.742275	0	0
2.05	-1.00386	1.35497	2.60736	0.664696	0.894768	1.01175	0.398258	-0.36869	0.131581	1.38038	-0.598902	0	0	0.393457	0.142663	-0.223203	0.509627	-0.210805	0	0	-0.118633	-0.226929	0.217517	0.142196	-0.379482	0.995011	0.46789	0.684725	0	0	0.191878	-0.344931	0.927214	0.471415	0.738111	0	0
2.06	-1.00385	1.35793	2.60701	0.663032	0.903283	1.01339	0.415014	-0.355783	0.14926	1.39775	-0.576174	0	0	0.377995	0.14189	-0.225309	0.504143	-0.205363	0	0	-0.119838	-0.224778	0.216226	0.1443	-0.379204	0.993708	0.467316	0.688519	0	0	0.192846	-0.345828	0.929778	0.472397	0.732959	0	0
2.07	-1.0044	1.35977	2.60664	0.66153	0.911678	1.01486	0.431343	-0.342298	0.16828	1.41324	-0.530506	0	0	0.36099	0.142883	-0.226537	0.494142	-0.199115	0	0	-0.122293	-0.224502	0.218666	0.139725	-0.378069	0.965094	0.468897	0.719285	0	0	0.197354	-0.346383	0.936698	0.473408	0.728082	0	0
2.08	-1.00912	1.36195	2.60901	0.660339	0.919848	1.01629	0.448121	-0.328202	0.187714	1.42567	-0.501499	0	0	0.342929	0.143151	-0.231031	0.483153	-0.195613	0	0	-0.124457	-0.224034	0.218701	0.143069	-0.378111	0.964273	0.469178	0.721315	0	0	0.198304	-0.34706	0.934143	0.474545	0.72853	0	0
